<svg width="197" height="197" viewBox="0 0 197 197" fill="none" xmlns="http://www.w3.org/2000/svg">
<path d="M39.8089 38.6763L68.7505 20.1598C68.7505 20.1598 98.0648 59.8065 115.1 86.4157C132.146 113.042 155.895 156.29 155.895 156.29L126.828 174.886C126.828 174.886 97.4136 135.266 80.392 108.621C63.3803 81.9914 39.8089 38.6763 39.8089 38.6763Z" fill="#D6DC22"/>
<path d="M57.9946 28.7573C63.0635 36.68 60.7499 47.2118 52.8272 52.2806C44.9045 57.3495 34.3727 55.036 29.3039 47.1132C24.235 39.1905 26.5486 28.6587 34.4713 23.5899C42.394 18.5211 52.9258 20.8346 57.9946 28.7573Z" fill="#D6DC22"/>
<path d="M144.324 163.692C149.393 171.615 147.079 182.147 139.157 187.216C131.234 192.285 120.702 189.971 115.633 182.048C110.565 174.126 112.878 163.594 120.801 158.525C128.724 153.456 139.255 155.77 144.324 163.692Z" fill="#D6DC22"/>
<path d="M80.6668 14.252C85.7357 22.1747 83.4221 32.7065 75.4994 37.7753C67.5767 42.8441 57.0449 40.5306 51.9761 32.6079C46.9072 24.6852 49.2208 14.1534 57.1435 9.08457C65.0662 4.01572 75.598 6.32925 80.6668 14.252Z" fill="#D6DC22"/>
<path d="M166.996 149.187C172.065 157.11 169.752 167.642 161.829 172.71C153.906 177.779 143.374 175.466 138.306 167.543C133.237 159.62 135.55 149.088 143.473 144.02C151.396 138.951 161.927 141.264 166.996 149.187Z" fill="#D6DC22"/>
<path d="M14.8421 97.349L22.2139 63.791C22.2139 63.791 70.9765 71.0971 101.838 77.8671C132.719 84.6415 180.093 98.4292 180.093 98.4292L172.689 132.132C172.689 132.132 123.874 124.916 92.9973 118.111C62.138 111.31 14.8421 97.349 14.8421 97.349Z" fill="#D6DC22"/>
<path d="M20.6876 77.4759C29.8741 79.4939 35.6852 88.5769 33.6672 97.7633C31.6492 106.95 22.5662 112.761 13.3798 110.743C4.19337 108.725 -1.61779 99.6419 0.400211 90.4555C2.41821 81.2691 11.5012 75.4579 20.6876 77.4759Z" fill="#D6DC22"/>
<path d="M177.145 111.845C186.332 113.863 192.143 122.946 190.125 132.133C188.107 141.319 179.024 147.13 169.837 145.112C160.651 143.094 154.84 134.011 156.858 124.825C158.876 115.638 167.959 109.827 177.145 111.845Z" fill="#D6DC22"/>
<path d="M26.4625 51.1874C35.6489 53.2054 41.4601 62.2884 39.4421 71.4749C37.4241 80.6613 28.3411 86.4724 19.1546 84.4544C9.96821 82.4364 4.15705 73.3535 6.17505 64.167C8.19304 54.9806 17.276 49.1694 26.4625 51.1874Z" fill="#D6DC22"/>
<path d="M182.92 85.5568C192.107 87.5748 197.918 96.6578 195.9 105.844C193.882 115.031 184.799 120.842 175.612 118.824C166.426 116.806 160.615 107.723 162.633 98.5364C164.651 89.3499 173.734 83.5388 182.92 85.5568Z" fill="#D6DC22"/>
<path d="M98.9507 14.8421L132.509 22.2139C132.509 22.2139 125.203 70.9765 118.433 101.838C111.658 132.718 97.8705 180.092 97.8705 180.092L64.1673 172.689C64.1673 172.689 71.3839 123.874 78.1888 92.9973C84.9898 62.138 98.9507 14.8421 98.9507 14.8421Z" fill="#D6DC22"/>
<path d="M118.824 20.6876C116.806 29.8741 107.723 35.6852 98.5364 33.6672C89.3499 31.6492 83.5388 22.5662 85.5568 13.3798C87.5748 4.19337 96.6577 -1.61779 105.844 0.400211C115.031 2.41821 120.842 11.5012 118.824 20.6876Z" fill="#D6DC22"/>
<path d="M84.4544 177.145C82.4364 186.332 73.3535 192.143 64.167 190.125C54.9806 188.107 49.1694 179.024 51.1874 169.837C53.2054 160.651 62.2884 154.84 71.4749 156.858C80.6613 158.876 86.4724 167.959 84.4544 177.145Z" fill="#D6DC22"/>
<path d="M145.112 26.4625C143.094 35.6489 134.011 41.46 124.825 39.442C115.638 37.424 109.827 28.3411 111.845 19.1546C113.863 9.96821 122.946 4.15704 132.133 6.17504C141.319 8.19304 147.13 17.276 145.112 26.4625Z" fill="#D6DC22"/>
<path d="M110.743 182.92C108.725 192.107 99.6419 197.918 90.4555 195.9C81.2691 193.882 75.4579 184.799 77.4759 175.612C79.4939 166.426 88.5769 160.615 97.7633 162.633C106.95 164.651 112.761 173.734 110.743 182.92Z" fill="#D6DC22"/>
<path d="M38.6764 156.492L20.1599 127.55C20.1599 127.55 59.8065 98.2357 86.4158 81.2007C113.042 64.1548 156.29 40.4057 156.29 40.4057L174.886 69.4726C174.886 69.4726 135.267 98.8868 108.621 115.908C81.9915 132.92 38.6764 156.492 38.6764 156.492Z" fill="#D6DC22"/>
<path d="M28.7574 138.306C36.6801 133.237 47.2119 135.55 52.2807 143.473C57.3496 151.396 55.036 161.928 47.1133 166.997C39.1906 172.065 28.6588 169.752 23.59 161.829C18.5211 153.906 20.8347 143.375 28.7574 138.306Z" fill="#D6DC22"/>
<path d="M163.692 51.9763C171.615 46.9074 182.147 49.221 187.216 57.1437C192.285 65.0664 189.971 75.5982 182.048 80.667C174.126 85.7359 163.594 83.4223 158.525 75.4996C153.456 67.5769 155.77 57.0451 163.692 51.9763Z" fill="#D6DC22"/>
<path d="M14.2521 115.634C22.1748 110.565 32.7065 112.878 37.7754 120.801C42.8442 128.724 40.5307 139.255 32.608 144.324C24.6852 149.393 14.1535 147.08 9.08465 139.157C4.0158 131.234 6.32933 120.702 14.2521 115.634Z" fill="#D6DC22"/>
<path d="M149.187 29.3041C157.11 24.2353 167.642 26.5488 172.71 34.4715C177.779 42.3942 175.466 52.926 167.543 57.9948C159.62 63.0637 149.089 60.7502 144.02 52.8274C138.951 44.9047 141.264 34.373 149.187 29.3041Z" fill="#D6DC22"/>
<path d="M58.2486 33.2843L87.8064 22.6669C87.8064 22.6669 105.87 63.9606 115.642 91.1386C125.419 118.334 137.791 161.705 137.791 161.705L108.105 172.369C108.105 172.369 89.9469 131.079 80.1949 103.871C70.4485 76.6796 58.2486 33.2843 58.2486 33.2843Z" fill="#F5F66F"/>
<path d="M76.4726 28.1421C79.3791 36.2335 75.1759 45.1491 67.0845 48.0555C58.9931 50.962 50.0775 46.7588 47.171 38.6674C44.2646 30.576 48.4678 21.6605 56.5592 18.754C64.6506 15.8475 73.5661 20.0507 76.4726 28.1421Z" fill="#F5F66F"/>
<path d="M125.974 165.95C128.881 174.041 124.677 182.957 116.586 185.863C108.494 188.77 99.5789 184.567 96.6725 176.475C93.766 168.384 97.9692 159.468 106.061 156.562C114.152 153.655 123.068 157.859 125.974 165.95Z" fill="#F5F66F"/>
<path d="M99.6275 19.8247C102.534 27.9161 98.3308 36.8317 90.2394 39.7382C82.148 42.6447 73.2324 38.4414 70.3259 30.35C67.4194 22.2586 71.6227 13.3431 79.7141 10.4366C87.8055 7.53012 96.721 11.7333 99.6275 19.8247Z" fill="#F5F66F"/>
<path d="M149.129 157.633C152.035 165.724 147.832 174.64 139.741 177.546C131.649 180.453 122.734 176.249 119.827 168.158C116.921 160.067 121.124 151.151 129.215 148.244C137.307 145.338 146.222 149.541 149.129 157.633Z" fill="#F5F66F"/>
<path d="M24.0684 80.4973L37.4613 52.0891C37.4613 52.0891 79.4334 68.5151 105.56 80.8235C131.704 93.1397 171.121 115.06 171.121 115.06L157.67 143.591C157.67 143.591 115.633 127.234 89.4992 114.891C63.3801 102.556 24.0684 80.4973 24.0684 80.4973Z" fill="#F5F66F"/>
<path d="M33.3186 63.9749C41.0953 67.6412 44.4275 76.9175 40.7612 84.6942C37.0949 92.4709 27.8185 95.803 20.0418 92.1367C12.2651 88.4704 8.93301 79.1941 12.5993 71.4174C16.2656 63.6407 25.542 60.3086 33.3186 63.9749Z" fill="#F5F66F"/>
<path d="M165.766 126.417C173.543 130.083 176.875 139.36 173.209 147.136C169.543 154.913 160.266 158.245 152.489 154.579C144.713 150.913 141.381 141.636 145.047 133.859C148.713 126.083 157.99 122.751 165.766 126.417Z" fill="#F5F66F"/>
<path d="M43.8103 41.7206C51.587 45.3869 54.9192 54.6633 51.2529 62.44C47.5866 70.2166 38.3102 73.5488 30.5335 69.8825C22.7568 66.2162 19.4247 56.9398 23.091 49.1631C26.7573 41.3865 36.0337 38.0543 43.8103 41.7206Z" fill="#F5F66F"/>
<path d="M176.258 104.163C184.035 107.829 187.367 117.105 183.701 124.882C180.034 132.659 170.758 135.991 162.981 132.325C155.205 128.658 151.872 119.382 155.539 111.605C159.205 103.829 168.481 100.496 176.258 104.163Z" fill="#F5F66F"/>
<path d="M115.802 24.0683L144.21 37.4612C144.21 37.4612 127.784 79.4332 115.476 105.56C103.16 131.704 81.2397 171.121 81.2397 171.121L52.7087 157.67C52.7087 157.67 69.0654 115.633 81.4081 89.4991C93.7437 63.38 115.802 24.0683 115.802 24.0683Z" fill="#F5F66F"/>
<path d="M132.325 33.3185C128.658 41.0952 119.382 44.4273 111.605 40.761C103.829 37.0948 100.496 27.8184 104.163 20.0417C107.829 12.265 117.105 8.93291 124.882 12.5992C132.659 16.2655 135.991 25.5419 132.325 33.3185Z" fill="#F5F66F"/>
<path d="M69.8825 165.766C66.2162 173.543 56.9399 176.875 49.1632 173.209C41.3865 169.542 38.0544 160.266 41.7207 152.489C45.387 144.713 54.6633 141.381 62.44 145.047C70.2167 148.713 73.5488 157.99 69.8825 165.766Z" fill="#F5F66F"/>
<path d="M154.579 43.8102C150.913 51.5869 141.636 54.919 133.86 51.2527C126.083 47.5865 122.751 38.3101 126.417 30.5334C130.083 22.7567 139.36 19.4246 147.136 23.0909C154.913 26.7572 158.245 36.0336 154.579 43.8102Z" fill="#F5F66F"/>
<path d="M92.1368 176.258C88.4705 184.035 79.1941 187.367 71.4174 183.7C63.6408 180.034 60.3086 170.758 63.9749 162.981C67.6412 155.204 76.9176 151.872 84.6943 155.539C92.4709 159.205 95.8031 168.481 92.1368 176.258Z" fill="#F5F66F"/>
<path d="M33.2843 138.052L22.667 108.494C22.667 108.494 63.9606 90.43 91.1386 80.6587C118.334 70.8811 161.705 58.5093 161.705 58.5093L172.369 88.195C172.369 88.195 131.079 106.353 103.871 116.105C76.6797 125.852 33.2843 138.052 33.2843 138.052Z" fill="#F5F66F"/>
<path d="M28.1421 119.828C36.2335 116.921 45.1491 121.124 48.0556 129.216C50.9621 137.307 46.7588 146.223 38.6674 149.129C30.576 152.036 21.6605 147.832 18.754 139.741C15.8475 131.65 20.0507 122.734 28.1421 119.828Z" fill="#F5F66F"/>
<path d="M165.95 70.3261C174.041 67.4197 182.957 71.6229 185.863 79.7143C188.77 87.8057 184.567 96.7212 176.475 99.6277C168.384 102.534 159.468 98.331 156.562 90.2396C153.655 82.1482 157.859 73.2326 165.95 70.3261Z" fill="#F5F66F"/>
<path d="M19.8248 96.6727C27.9162 93.7662 36.8317 97.9694 39.7382 106.061C42.6447 114.152 38.4415 123.068 30.3501 125.974C22.2587 128.881 13.3431 124.678 10.4366 116.586C7.53015 108.495 11.7334 99.5792 19.8248 96.6727Z" fill="#F5F66F"/>
<path d="M157.633 47.1713C165.724 44.2648 174.64 48.468 177.546 56.5594C180.453 64.6508 176.249 73.5664 168.158 76.4728C160.067 79.3793 151.151 75.1761 148.245 67.0847C145.338 58.9933 149.541 50.0777 157.633 47.1713Z" fill="#F5F66F"/>
<path d="M86.4887 42.5184H109.93C109.93 42.5184 112.2 76.0822 112.206 97.6384C112.212 119.208 109.959 152.796 109.959 152.796H86.4161C86.4161 152.796 84.0794 119.21 84.0941 97.6384C84.1088 76.079 86.4887 42.5184 86.4887 42.5184Z" fill="#FEFCBF"/>
<path d="M100.587 43.5046C100.587 49.9216 95.3853 55.1236 88.9682 55.1236C82.5512 55.1236 77.3492 49.9216 77.3492 43.5046C77.3492 37.0875 82.5512 31.8855 88.9682 31.8855C95.3853 31.8855 100.587 37.0875 100.587 43.5046Z" fill="#FEFCBF"/>
<path d="M100.587 152.796C100.587 159.213 95.3853 164.415 88.9682 164.415C82.5512 164.415 77.3492 159.213 77.3492 152.796C77.3492 146.379 82.5512 141.176 88.9682 141.176C95.3853 141.176 100.587 146.379 100.587 152.796Z" fill="#FEFCBF"/>
<path d="M118.951 43.5046C118.951 49.9216 113.749 55.1236 107.332 55.1236C100.915 55.1236 95.7126 49.9216 95.7126 43.5046C95.7126 37.0875 100.915 31.8855 107.332 31.8855C113.749 31.8855 118.951 37.0875 118.951 43.5046Z" fill="#FEFCBF"/>
<path d="M118.951 152.796C118.951 159.213 113.749 164.415 107.332 164.415C100.915 164.415 95.7126 159.213 95.7126 152.796C95.7126 146.379 100.915 141.176 107.332 141.176C113.749 141.176 118.951 146.379 118.951 152.796Z" fill="#FEFCBF"/>
<path d="M50.5666 67.0581L67.1422 50.4825C67.1422 50.4825 92.4802 72.611 107.727 87.8491C122.984 103.097 145.14 128.44 145.14 128.44L128.493 145.087C128.493 145.087 103.092 122.991 87.8492 107.727C72.6148 92.4718 50.5666 67.0581 50.5666 67.0581Z" fill="#FEFCBF"/>
<path d="M61.2332 57.7862C65.7708 62.3237 65.7708 69.6805 61.2332 74.218C56.6957 78.7555 49.3389 78.7555 44.8014 74.218C40.2639 69.6805 40.2639 62.3237 44.8014 57.7862C49.3389 53.2486 56.6957 53.2486 61.2332 57.7862Z" fill="#FEFCBF"/>
<path d="M138.514 135.067C143.051 139.604 143.051 146.961 138.514 151.498C133.976 156.036 126.619 156.036 122.082 151.498C117.544 146.961 117.544 139.604 122.082 135.067C126.619 130.529 133.976 130.529 138.514 135.067Z" fill="#FEFCBF"/>
<path d="M74.2181 44.8013C78.7556 49.3388 78.7556 56.6956 74.2181 61.2331C69.6806 65.7707 62.3238 65.7707 57.7863 61.2331C53.2487 56.6956 53.2487 49.3388 57.7863 44.8013C62.3238 40.2638 69.6806 40.2638 74.2181 44.8013Z" fill="#FEFCBF"/>
<path d="M151.499 122.082C156.036 126.619 156.036 133.976 151.499 138.514C146.961 143.051 139.604 143.051 135.067 138.514C130.529 133.976 130.529 126.619 135.067 122.082C139.604 117.544 146.961 117.544 151.499 122.082Z" fill="#FEFCBF"/>
<path d="M129.242 50.5666L145.817 67.1421C145.817 67.1421 123.689 92.4801 108.451 107.727C93.2027 122.984 67.8598 145.14 67.8598 145.14L51.2125 128.493C51.2125 128.493 73.3086 103.092 88.5727 87.8491C103.828 72.6147 129.242 50.5666 129.242 50.5666Z" fill="#FEFCBF"/>
<path d="M138.514 61.2332C133.976 65.7707 126.619 65.7707 122.082 61.2332C117.544 56.6956 117.544 49.3388 122.082 44.8013C126.619 40.2638 133.976 40.2638 138.514 44.8013C143.051 49.3388 143.051 56.6956 138.514 61.2332Z" fill="#FEFCBF"/>
<path d="M61.2331 138.514C56.6956 143.051 49.3388 143.051 44.8013 138.514C40.2638 133.976 40.2638 126.619 44.8013 122.082C49.3388 117.544 56.6956 117.544 61.2331 122.082C65.7707 126.619 65.7707 133.976 61.2331 138.514Z" fill="#FEFCBF"/>
<path d="M151.498 74.218C146.961 78.7556 139.604 78.7556 135.067 74.218C130.529 69.6805 130.529 62.3237 135.067 57.7862C139.604 53.2487 146.961 53.2487 151.498 57.7862C156.036 62.3237 156.036 69.6805 151.498 74.218Z" fill="#FEFCBF"/>
<path d="M74.218 151.498C69.6805 156.036 62.3237 156.036 57.7862 151.498C53.2486 146.961 53.2486 139.604 57.7862 135.067C62.3237 130.529 69.6805 130.529 74.218 135.067C78.7555 139.604 78.7555 146.961 74.218 151.498Z" fill="#FEFCBF"/>
<path d="M42.5182 109.811V86.3701C42.5182 86.3701 76.0821 84.1007 97.6383 84.0945C119.208 84.0883 152.796 86.3413 152.796 86.3413V109.884C152.796 109.884 119.21 112.221 97.6383 112.206C76.0788 112.191 42.5182 109.811 42.5182 109.811Z" fill="#FEFCBF"/>
<path d="M43.5044 95.7128C49.9215 95.7128 55.1235 100.915 55.1235 107.332C55.1235 113.749 49.9215 118.951 43.5044 118.951C37.0874 118.951 31.8854 113.749 31.8854 107.332C31.8854 100.915 37.0874 95.7128 43.5044 95.7128Z" fill="#FEFCBF"/>
<path d="M152.795 95.7128C159.212 95.7128 164.415 100.915 164.415 107.332C164.415 113.749 159.212 118.951 152.795 118.951C146.378 118.951 141.176 113.749 141.176 107.332C141.176 100.915 146.378 95.7128 152.795 95.7128Z" fill="#FEFCBF"/>
<path d="M43.5044 77.3495C49.9215 77.3495 55.1235 82.5515 55.1235 88.9685C55.1235 95.3856 49.9215 100.588 43.5044 100.588C37.0874 100.588 31.8854 95.3856 31.8854 88.9685C31.8854 82.5515 37.0874 77.3495 43.5044 77.3495Z" fill="#FEFCBF"/>
<path d="M152.795 77.3495C159.212 77.3495 164.415 82.5515 164.415 88.9685C164.415 95.3856 159.212 100.588 152.795 100.588C146.378 100.588 141.176 95.3856 141.176 88.9685C141.176 82.5515 146.378 77.3495 152.795 77.3495Z" fill="#FEFCBF"/>
<path d="M117.785 98.1502C117.785 108.994 108.994 117.785 98.15 117.785C87.3058 117.785 78.5148 108.994 78.5148 98.1502C78.5148 87.3059 87.3058 78.5149 98.15 78.5149C108.994 78.5149 117.785 87.3059 117.785 98.1502Z" fill="#F0901E"/>
<path d="M116.946 92.4515C119.576 102.416 110.606 108.594 98.2902 108.594C89.481 108.594 84.4231 107.138 78.5148 98.1502C78.5148 87.9555 85.8512 79.0516 98.15 78.5149C110.466 78.5149 115.972 88.763 116.946 92.4515Z" fill="#FDAD1F"/>
</svg>
