<svg width="145" height="148" viewBox="0 0 145 148" fill="none" xmlns="http://www.w3.org/2000/svg">
<path d="M46.0364 8.94797C53.1273 2.80835 72.4299 0 72.4299 0C72.4299 0 93.4001 3.86302 97.8318 8.38694C102.264 12.9109 103.274 15.9088 103.958 20.8898C104.642 25.8707 98.2531 46.7536 98.2531 46.7536V73.4128L98.0165 99.0256C98.0165 99.0256 109.352 115.494 105.858 125.903C104.122 131.076 101.854 133.774 97.6537 137.939C90.0859 145.443 72.0047 147.868 72.0047 147.868C72.0047 147.868 53.2515 145.351 45.9098 137.796C41.8571 133.625 39.7541 130.906 38.1178 125.784C34.7985 115.393 45.8456 99.0256 45.8456 99.0256L45.5087 73.4128V46.7536C45.5087 46.7536 36.7129 30.9203 39.4901 20.8898C40.8671 15.9165 41.7165 12.6883 46.0364 8.94797Z" fill="#4E9BA9"/>
<path d="M8.73595 101.269C2.74181 94.1777 0 74.8751 0 74.8751C0 74.8751 3.77149 53.9049 8.18822 49.4732C12.6049 45.0415 15.5318 44.0311 20.3948 43.3469C25.2578 42.6627 45.6458 49.0519 45.6458 49.0519H71.6733L96.6792 49.2885C96.6792 49.2885 112.757 37.9532 122.92 41.447C127.97 43.1832 130.605 45.4505 134.671 49.6513C141.996 57.2191 144.365 75.3003 144.365 75.3003C144.365 75.3003 141.907 94.0535 134.531 101.395C130.459 105.448 127.805 107.551 122.804 109.187C112.659 112.507 96.6792 101.459 96.6792 101.459L71.6733 101.796H45.6458C45.6458 101.796 30.1877 110.592 20.3948 107.815C15.5394 106.438 12.3877 105.588 8.73595 101.269Z" fill="#4E9BA9"/>
<path d="M48.3786 8.77242C55.3006 2.75325 74.1434 0 74.1434 0C74.1434 0 94.6141 3.78723 98.9402 8.22239C103.266 12.6576 104.253 15.5966 104.921 20.4799C105.588 25.3632 99.3514 45.8364 99.3514 45.8364V71.9725L99.1205 97.0827C99.1205 97.0827 110.186 113.228 106.775 123.433C105.08 128.504 102.867 131.15 98.7663 135.233C91.3788 142.589 73.7283 144.967 73.7283 144.967C73.7283 144.967 55.4218 142.499 48.2549 135.092C44.2988 131.003 42.2459 128.338 40.6486 123.316C37.4083 113.129 48.1923 97.0827 48.1923 97.0827L47.8634 71.9725V45.8364C47.8634 45.8364 39.2772 30.3137 41.9882 20.4799C43.3324 15.6043 44.1616 12.4394 48.3786 8.77242Z" fill="#58BACF"/>
<path d="M11.9666 99.2817C6.11522 92.3299 3.43872 73.4061 3.43872 73.4061C3.43872 73.4061 7.12038 52.8473 11.4319 48.5025C15.7434 44.1578 18.6006 43.1672 23.3477 42.4964C28.0948 41.8257 47.9973 48.0895 47.9973 48.0895H73.4048L97.8151 48.3215C97.8151 48.3215 113.51 37.2086 123.431 40.6338C128.361 42.336 130.933 44.5588 134.902 48.6772C142.053 56.0965 144.365 73.8229 144.365 73.8229C144.365 73.8229 141.966 92.2082 134.765 99.4059C130.79 103.379 128.199 105.441 123.317 107.045C113.414 110.299 97.8151 99.4688 97.8151 99.4688L73.4048 99.7991H47.9973C47.9973 99.7991 32.9073 108.422 23.3477 105.7C18.608 104.35 15.5313 103.517 11.9666 99.2817Z" fill="#58BACF"/>
<path d="M7.74215 46.4698C8.41479 37.1144 20.078 21.4796 20.078 21.4796C20.078 21.4796 37.6377 9.38303 43.9703 9.44824C50.3029 9.51344 53.1372 10.9188 57.1431 13.9571C61.149 16.9954 71.3975 36.2797 71.3975 36.2797L90.2484 55.1306L108.192 73.4088C108.192 73.4088 127.852 77.0384 132.742 86.8693C135.172 91.7548 135.477 95.2662 135.452 101.182C135.406 111.838 124.336 126.339 124.336 126.339C124.336 126.339 109.295 137.819 98.7616 137.668C92.9468 137.585 89.5375 137.15 84.7586 134.685C75.0639 129.684 71.3017 110.299 71.3017 110.299L52.9525 92.4265L34.1017 73.5756C34.1017 73.5756 16.6862 68.5993 11.5573 59.5429C9.01439 55.0526 7.33236 52.1693 7.74215 46.4698Z" fill="#8DDDF2"/>
<path d="M46.6472 138.126C37.3947 137.35 21.807 125.64 21.807 125.64C21.807 125.64 9.64565 108.145 9.63507 101.888C9.62448 95.6314 10.9796 92.8473 13.9345 88.9249C16.8893 85.0025 35.8237 75.1038 35.8237 75.1038L54.2279 56.6995L72.0771 39.185C72.0771 39.185 75.4307 19.8009 85.0872 15.0853C89.886 12.7419 93.3522 12.4821 99.1979 12.5773C109.729 12.7487 124.189 23.8593 124.189 23.8593C124.189 23.8593 135.712 38.8578 135.687 49.265C135.674 55.01 135.284 58.3737 132.905 63.0668C128.078 72.5874 108.967 76.0754 108.967 76.0754L91.5238 93.9954L73.1196 112.4C73.1196 112.4 68.4086 129.55 59.5202 134.511C55.1133 136.97 52.284 138.598 46.6472 138.126Z" fill="#8DDDF2"/>
<path d="M52.0469 19.22C57.8818 14.1678 73.7653 11.8569 73.7653 11.8569C73.7653 11.8569 91.0211 15.0357 94.6678 18.7583C98.3146 22.4809 99.146 24.9478 99.709 29.0465C100.272 33.1452 95.0145 50.3292 95.0145 50.3292V72.2663L94.8198 93.3423C94.8198 93.3423 104.147 106.894 101.272 115.459C99.8437 119.716 97.978 121.936 94.5213 125.363C88.2939 131.538 73.4155 133.534 73.4155 133.534C73.4155 133.534 57.9839 131.462 51.9426 125.245C48.6078 121.813 46.8773 119.576 45.5309 115.361C42.7995 106.811 51.8898 93.3423 51.8898 93.3423L51.6127 72.2663V50.3292C51.6127 50.3292 44.3748 37.3004 46.6601 29.0465C47.7932 24.9542 48.4922 22.2978 52.0469 19.22Z" fill="#65ABBE"/>
<path d="M21.3534 95.188C16.421 89.3531 14.1648 73.4695 14.1648 73.4695C14.1648 73.4695 17.2682 56.2137 20.9026 52.567C24.537 48.9203 26.9455 48.0889 30.9471 47.5259C34.9487 46.9629 51.7255 52.2204 51.7255 52.2204H73.1428L93.7194 52.4151C93.7194 52.4151 106.95 43.0876 115.312 45.9625C119.468 47.3912 121.636 49.2569 124.982 52.7136C131.01 58.9409 132.958 73.8194 132.958 73.8194C132.958 73.8194 130.936 89.2509 124.866 95.2922C121.516 98.6271 119.332 100.358 115.217 101.704C106.869 104.435 93.7194 95.345 93.7194 95.345L73.1428 95.6222H51.7255C51.7255 95.6222 39.0054 102.86 30.9471 100.575C26.9517 99.4417 24.3583 98.7427 21.3534 95.188Z" fill="#65ABBE"/>
<path d="M55.0578 19.1098C60.6756 14.1333 75.9681 11.8569 75.9681 11.8569C75.9681 11.8569 92.5817 14.9882 96.0928 18.6551C99.6038 22.322 100.404 24.752 100.946 28.7894C101.488 32.8268 96.4265 49.7538 96.4265 49.7538V71.3628L96.2391 92.1236C96.2391 92.1236 105.219 105.472 102.451 113.91C101.076 118.102 99.2797 120.29 95.9516 123.666C89.956 129.748 75.6312 131.714 75.6312 131.714C75.6312 131.714 60.7739 129.673 54.9575 123.549C51.7467 120.169 50.0807 117.965 48.7843 113.813C46.1545 105.391 54.9066 92.1236 54.9066 92.1236L54.6398 71.3628V49.7538C54.6398 49.7538 47.6713 36.9198 49.8715 28.7894C50.9624 24.7583 51.6354 22.1417 55.0578 19.1098Z" fill="#ACEEFE"/>
<path d="M25.5065 93.9417C20.7576 88.194 18.5854 72.548 18.5854 72.548C18.5854 72.548 21.5734 55.5503 25.0726 51.9581C28.5717 48.366 30.8905 47.547 34.7432 46.9924C38.5959 46.4378 54.7484 51.6167 54.7484 51.6167H75.3687L95.1796 51.8085C95.1796 51.8085 107.917 42.6205 115.969 45.4524C119.97 46.8597 122.057 48.6975 125.279 52.1025C131.082 58.2367 132.958 72.8927 132.958 72.8927C132.958 72.8927 131.011 88.0934 125.167 94.0443C121.942 97.3293 119.839 99.0339 115.877 100.36C107.84 103.051 95.1796 94.0964 95.1796 94.0964L75.3687 94.3694H54.7484C54.7484 94.3694 42.5016 101.499 34.7432 99.2479C30.8965 98.1317 28.3996 97.4432 25.5065 93.9417Z" fill="#ACEEFE"/>
<path d="M93.0564 72.6953C93.0564 83.5396 84.2654 92.3306 73.4211 92.3306C62.5769 92.3306 53.7859 83.5396 53.7859 72.6953C53.7859 61.8511 62.5769 53.0601 73.4211 53.0601C84.2654 53.0601 93.0564 61.8511 93.0564 72.6953Z" fill="#F58F12"/>
<path d="M92.2167 66.9966C94.8469 76.9609 85.8773 83.1392 73.5613 83.1392C64.7522 83.1392 59.6942 81.6831 53.7859 72.6953C53.7859 62.5007 61.1224 53.5968 73.4211 53.0601C85.7371 53.0601 91.243 63.3082 92.2167 66.9966Z" fill="#FEAE22"/>
</svg>
