<svg width="143" height="143" viewBox="0 0 143 143" fill="none" xmlns="http://www.w3.org/2000/svg">
<path d="M48.1132 15.6849L56.865 0.0914193L71.9104 11.0613L76.9796 70.7512L94.6141 127.916L84.6326 142.624L70.817 132.539L65.8718 72.9094L48.1132 15.6849Z" fill="#FD9695"/>
<path d="M15.6846 94.4039L0.0911832 85.6522L11.0611 70.6068L70.751 65.5375L127.915 47.903L142.624 57.8845L132.539 71.7002L72.9092 76.6453L15.6846 94.4039Z" fill="#FD9695"/>
<path d="M15.5958 48.3281L10.758 31.1135L29.1536 28.2316L74.9452 66.8543L127.836 94.8061L131.178 112.264L114.278 114.903L68.6169 76.2348L15.5958 48.3281Z" fill="#FD9695"/>
<path d="M94.1888 15.5961L111.403 10.7583L114.285 29.1539L75.6626 74.9455L47.7108 127.836L30.2525 131.179L27.6143 114.279L66.2821 68.6171L94.1888 15.5961Z" fill="#FD9695"/>
<path d="M71.1403 11.0578L85.1928 0L94.8955 15.8921L76.7385 72.979L71.1569 132.541L56.307 142.31L47.4017 127.706L65.6503 70.7225L71.1403 11.0578Z" fill="#DA6968"/>
<path d="M11.0578 71.377L0 57.3245L15.8921 47.6217L72.979 65.7787L132.541 71.3603L142.31 86.2103L127.706 95.1156L70.7225 76.867L11.0578 71.377Z" fill="#DA6968"/>
<path d="M28.6067 28.7739L30.7243 11.0182L48.8226 15.3948L76.3501 68.6002L114.52 114.663L110.927 132.072L94.3039 128.043L66.914 74.8452L28.6067 28.7739Z" fill="#DA6968"/>
<path d="M113.743 28.6066L131.499 30.7242L127.122 48.8225L73.9168 76.3501L27.8536 114.52L10.4451 110.927L14.4745 94.3039L67.6718 66.9139L113.743 28.6066Z" fill="#DA6968"/>
<path d="M61.4969 23.7691L70.8108 12.7858L81.0202 23.7691L75.8594 71.7364L81.0202 119.637L70.87 129.732L61.4969 119.637L66.7465 71.7364L61.4969 23.7691Z" fill="#FEB2B2"/>
<path d="M23.7689 81.0204L12.7855 71.7065L23.7689 61.4971L71.7361 66.6579L119.637 61.4971L129.731 71.6473L119.637 81.0204L71.7361 75.7708L23.7689 81.0204Z" fill="#FEB2B2"/>
<path d="M30.7758 44.581L29.5954 30.2287L44.5809 30.7759L74.8496 68.3431L112.37 98.5648L112.33 112.88L98.5647 112.37L68.4059 74.7869L30.7758 44.581Z" fill="#FEB2B2"/>
<path d="M97.9361 30.7761L112.288 29.5956L111.741 44.5811L74.174 74.8499L43.9523 112.37L29.6371 112.331L30.1472 98.5649L67.7302 68.4061L97.9361 30.7761Z" fill="#FEB2B2"/>
<path d="M80.4117 23.648L93.2196 17.0645L98.4492 31.1186L75.3264 73.4604L61.7652 119.69L48.5249 125.133L43.7278 112.22L66.9071 69.9734L80.4117 23.648Z" fill="#FE8182"/>
<path d="M23.6478 62.1054L17.0644 49.2975L31.1184 44.068L73.4603 67.1907L119.69 80.7519L125.132 93.9923L112.22 98.7894L69.9732 75.61L23.6478 62.1054Z" fill="#FE8182"/>
<path d="M44.0651 31.1205L48.4664 17.4088L62.102 23.6486L75.692 69.9391L98.7922 112.218L93.2782 125.428L80.7553 119.69L67.2729 73.4267L44.0651 31.1205Z" fill="#FE8182"/>
<path d="M111.396 44.0652L125.108 48.4665L118.868 62.1021L72.5779 75.692L30.2992 98.7923L17.0886 93.2782L22.8273 80.7553L69.0902 67.273L111.396 44.0652Z" fill="#FE8182"/>
<path d="M88.0656 71.7039C88.0656 80.9862 80.5408 88.5109 71.2585 88.5109C61.9762 88.5109 54.4515 80.9862 54.4515 71.7039C54.4515 62.4216 61.9762 54.8968 71.2585 54.8968C80.5408 54.8968 88.0656 62.4216 88.0656 71.7039Z" fill="#E0CF8A"/>
<path d="M87.3468 66.826C89.5982 75.3551 81.9205 80.6434 71.3785 80.6434C63.8382 80.6434 59.5088 79.3971 54.4515 71.7039C54.4515 62.9777 60.7312 55.3562 71.2585 54.8968C81.8006 54.8968 86.5134 63.6688 87.3468 66.826Z" fill="#FEF9A7"/>
</svg>
