<svg width="153" height="154" viewBox="0 0 153 154" fill="none" xmlns="http://www.w3.org/2000/svg">
<path d="M2.99474 97.8116L52.7924 67.9648L33.6097 13.1682L77.3841 51.3054L123.571 16.1285L100.827 69.5454L148.555 102.601L90.7244 97.4777L74.0349 153.084L61.0372 96.5008L2.99474 97.8116Z" fill="#946EF6"/>
<path d="M30.6481 137.839L52.4111 84.0149L4.0869 51.8371L62.0016 55.9025L77.6715 0L91.7017 56.3364L149.71 53.9646L100.467 84.717L120.648 139.154L76.184 101.823L30.6481 137.839Z" fill="#946EF6"/>
<path d="M0 75.0926L56.3995 61.3183L54.291 3.29941L84.8196 52.6821L139.347 32.7479L101.815 77.0424L137.624 122.741L83.8994 100.734L51.5026 148.912L55.8308 91.0161L0 75.0926Z" fill="#C0A8FE"/>
<path d="M17.3191 28.0424L70.1497 52.1166L104.391 5.23154L97.8203 62.9158L152.992 80.9925L96.1003 92.5692L95.9572 150.626L67.3667 100.097L12.1069 117.901L51.3284 75.0957L17.3191 28.0424Z" fill="#C0A8FE"/>
<path d="M75.3146 20.1036L88.588 58.2893L129.006 59.1129L96.7913 83.5367L108.498 122.231L75.3146 99.1404L42.1313 122.231L53.8379 83.5367L21.6229 59.1129L62.0413 58.2893L75.3146 20.1036Z" fill="#D0C5FE"/>
<path d="M44.2562 30.2546L76.9774 54.5453L110.611 31.5338L97.6201 70.1597L129.899 95.0358L89.1488 94.6172L75.4649 133.003L63.2706 94.1183L22.535 92.966L55.7483 69.3525L44.2562 30.2546Z" fill="#D0C5FE"/>
<path d="M96.1882 76.559C96.1882 87.4033 87.3972 96.1943 76.5529 96.1943C65.7087 96.1943 56.9177 87.4033 56.9177 76.559C56.9177 65.7148 65.7087 56.9237 76.5529 56.9237C87.3972 56.9237 96.1882 65.7148 96.1882 76.559Z" fill="#E0CF8A"/>
<path d="M95.3485 70.8603C97.9787 80.8246 89.0091 87.0029 76.6931 87.0029C67.884 87.0029 62.826 85.5468 56.9177 76.559C56.9177 66.3644 64.2542 57.4605 76.5529 56.9237C88.8689 56.9237 94.3748 67.1719 95.3485 70.8603Z" fill="#FEF9A7"/>
</svg>
