<svg width="133" height="133" viewBox="0 0 133 133" fill="none" xmlns="http://www.w3.org/2000/svg">
<path d="M56.574 10.9186C56.7303 4.73407 61.8707 -0.152724 68.0552 0.00365066C74.2397 0.160026 79.1265 5.30035 78.9702 11.4849L76.18 121.835C76.0236 128.02 70.8833 132.907 64.6987 132.75C58.5142 132.594 53.6274 127.454 53.7838 121.269L56.574 10.9186Z" fill="#F9C306"/>
<path d="M10.9186 76.1797C4.73407 76.0234 -0.152724 70.883 0.00365066 64.6985C0.160026 58.514 5.30035 53.6272 11.4849 53.7836L121.835 56.5737C128.02 56.7301 132.907 61.8704 132.75 68.055C132.594 74.2395 127.454 79.1263 121.269 78.9699L10.9186 76.1797Z" fill="#F9C306"/>
<path d="M20.2298 34.0941C15.9672 29.6104 16.1465 22.5202 20.6302 18.2576C25.1139 13.9951 32.2041 14.1743 36.4667 18.658L112.523 98.6606C116.786 103.144 116.607 110.235 112.123 114.497C107.639 118.76 100.549 118.58 96.2864 114.097L20.2298 34.0941Z" fill="#F9C306"/>
<path d="M98.6604 20.2302C103.144 15.9676 110.234 16.1469 114.497 20.6306C118.759 25.1143 118.58 32.2045 114.096 36.4671L34.0939 112.524C29.6102 116.786 22.52 116.607 18.2574 112.123C13.9949 107.64 14.1741 100.549 18.6578 96.2868L98.6604 20.2302Z" fill="#F9C306"/>
<path d="M36.3086 19.7575C34.1121 13.9741 37.0199 7.50503 42.8033 5.30849C48.5867 3.11196 55.0558 6.01971 57.2523 11.8031L96.4451 114.997C98.6416 120.78 95.7339 127.249 89.9504 129.446C84.167 131.642 77.6979 128.735 75.5014 122.951L36.3086 19.7575Z" fill="#FEE77C"/>
<path d="M18.7571 97.4452C12.9737 99.6417 6.50463 96.734 4.3081 90.9505C2.11156 85.1671 5.01931 78.698 10.8028 76.5015L113.996 37.3087C119.78 35.1122 126.249 38.0199 128.446 43.8034C130.642 49.5868 127.734 56.0559 121.951 58.2524L18.7571 97.4452Z" fill="#FEE77C"/>
<path d="M11.443 54.9669C5.80026 52.4306 3.28204 45.8002 5.81836 40.1575C8.35469 34.5148 14.9851 31.9966 20.6278 34.5329L121.31 79.7885C126.953 82.3248 129.471 88.9552 126.935 94.5979C124.399 100.241 117.768 102.759 112.125 100.222L11.443 54.9669Z" fill="#FEE77C"/>
<path d="M78.7878 12.4434C81.3241 6.80075 87.9545 4.28254 93.5972 6.81886C99.2399 9.35518 101.758 15.9856 99.2218 21.6283L53.9663 122.311C51.43 127.953 44.7996 130.472 39.1569 127.935C33.5142 125.399 30.9959 118.769 33.5323 113.126L78.7878 12.4434Z" fill="#FEE77C"/>
<path d="M77.8825 26.6477C77.8825 33.0019 72.7314 38.153 66.3771 38.153C60.0229 38.153 54.8717 33.0019 54.8717 26.6477C54.8717 20.2934 60.0229 15.1423 66.3771 15.1423C72.7314 15.1423 77.8825 20.2934 77.8825 26.6477Z" fill="#FCF9CB"/>
<path d="M107.586 36.7409C107.586 43.0952 102.435 48.2463 96.0811 48.2463C89.7268 48.2463 84.5757 43.0952 84.5757 36.7409C84.5757 30.3867 89.7268 25.2356 96.0811 25.2356C102.435 25.2356 107.586 30.3867 107.586 36.7409Z" fill="#FCF9CB"/>
<path d="M48.1792 36.7409C48.1792 43.0952 43.0281 48.2463 36.6738 48.2463C30.3196 48.2463 25.1685 43.0952 25.1685 36.7409C25.1685 30.3867 30.3196 25.2356 36.6738 25.2356C43.0281 25.2356 48.1792 30.3867 48.1792 36.7409Z" fill="#FCF9CB"/>
<path d="M60.1911 33.2185C60.1911 29.4914 63.2126 26.4699 66.9397 26.4699C70.6668 26.4699 73.6882 29.4914 73.6882 33.2185V99.7214C73.6882 103.449 70.6668 106.47 66.9397 106.47C63.2126 106.47 60.1911 103.449 60.1911 99.7214V33.2185Z" fill="#FCF9CB"/>
<path d="M33.6882 73.2183C29.9611 73.2183 26.9397 70.1969 26.9397 66.4698C26.9397 62.7427 29.9611 59.7212 33.6882 59.7212H100.191C103.918 59.7212 106.94 62.7427 106.94 66.4698C106.94 70.1969 103.918 73.2183 100.191 73.2183H33.6882Z" fill="#FCF9CB"/>
<path d="M38.6552 47.7298C36.0197 45.0943 36.0197 40.8214 38.6552 38.1859C41.2906 35.5504 45.5636 35.5504 48.199 38.1859L95.2237 85.2105C97.8592 87.846 97.8592 92.119 95.2237 94.7544C92.5882 97.3899 88.3153 97.3899 85.6798 94.7544L38.6552 47.7298Z" fill="#FCF9CB"/>
<path d="M85.6802 38.1856C88.3156 35.5502 92.5886 35.5502 95.2241 38.1856C97.8595 40.8211 97.8595 45.0941 95.2241 47.7295L48.1994 94.7542C45.5639 97.3897 41.291 97.3897 38.6555 94.7542C36.02 92.1187 36.02 87.8458 38.6555 85.2103L85.6802 38.1856Z" fill="#FCF9CB"/>
<path d="M118.445 65.2184C118.445 71.5726 113.294 76.7237 106.94 76.7237C100.585 76.7237 95.4343 71.5726 95.4343 65.2184C95.4343 58.8641 100.585 53.713 106.94 53.713C113.294 53.713 118.445 58.8641 118.445 65.2184Z" fill="#FCF9CB"/>
<path d="M106.94 94.9646C106.94 101.319 101.789 106.47 95.4343 106.47C89.0801 106.47 83.929 101.319 83.929 94.9646C83.929 88.6103 89.0801 83.4592 95.4343 83.4592C101.789 83.4592 106.94 88.6103 106.94 94.9646Z" fill="#FCF9CB"/>
<path d="M78.4452 106.47C78.4452 112.824 73.2941 117.975 66.9398 117.975C60.5856 117.975 55.4345 112.824 55.4345 106.47C55.4345 100.116 60.5856 94.9646 66.9398 94.9646C73.2941 94.9646 78.4452 100.116 78.4452 106.47Z" fill="#FCF9CB"/>
<path d="M49.9504 94.9646C49.9504 101.319 44.7993 106.47 38.4451 106.47C32.0908 106.47 26.9397 101.319 26.9397 94.9646C26.9397 88.6103 32.0908 83.4592 38.4451 83.4592C44.7993 83.4592 49.9504 88.6103 49.9504 94.9646Z" fill="#FCF9CB"/>
<path d="M35.5628 66.4699C35.5628 72.8242 30.4117 77.9753 24.0575 77.9753C17.7032 77.9753 12.5521 72.8242 12.5521 66.4699C12.5521 60.1157 17.7032 54.9646 24.0575 54.9646C30.4117 54.9646 35.5628 60.1157 35.5628 66.4699Z" fill="#FCF9CB"/>
<path d="M86.0122 67.4698C86.0122 78.314 77.2212 87.105 66.3769 87.105C55.5327 87.105 46.7417 78.314 46.7417 67.4698C46.7417 56.6255 55.5327 47.8345 66.3769 47.8345C77.2212 47.8345 86.0122 56.6255 86.0122 67.4698Z" fill="#F39014"/>
<path d="M85.1725 61.7711C87.8027 71.7354 78.8331 77.9136 66.5171 77.9136C57.708 77.9136 52.65 76.4576 46.7417 67.4698C46.7417 57.2752 54.0782 48.3712 66.3769 47.8345C78.6929 47.8345 84.1989 58.0826 85.1725 61.7711Z" fill="#FEAE22"/>
</svg>
