<svg width="133" height="133" viewBox="0 0 133 133" fill="none" xmlns="http://www.w3.org/2000/svg">
<path d="M5.00882 40.831C5.00882 40.831 17.9566 34.6207 26.5587 31.8825C35.5415 29.0232 50.0254 26.5894 50.0254 26.5894C50.0254 26.5894 61.9553 18.0613 70.1197 13.7948C78.0725 9.63886 91.2813 5.00752 91.2813 5.00752C91.2813 5.00752 97.5095 17.8834 100.243 26.5908C103.006 35.389 105.257 49.666 105.257 49.666C105.257 49.666 113.74 61.2623 118.009 69.375C122.322 77.572 127.105 91.28 127.105 91.28C127.105 91.28 113.659 97.7661 104.965 100.473C96.2771 103.178 82.6372 105.127 82.6372 105.127C82.6372 105.127 70.6845 113.805 62.5056 118.104C54.3432 122.394 40.8323 127.103 40.8323 127.103C40.8323 127.103 34.6043 114.269 31.9078 105.613C29.1842 96.8689 26.9744 82.5651 26.9744 82.5651C26.9744 82.5651 18.333 70.7459 14.0334 62.5739C9.75295 54.4383 5.00882 40.831 5.00882 40.831Z" fill="#86BA37"/>
<path d="M5.0477 91.3928C5.0477 91.3928 9.81184 77.8459 13.9583 69.8272C18.2882 61.4535 26.8089 49.4909 26.8089 49.4909C26.8089 49.4909 29.2144 35.0249 31.9706 26.235C34.6554 17.6728 40.7205 5.05793 40.7205 5.05793C40.7205 5.05793 54.2291 9.75854 62.3194 13.9824C70.4941 18.2503 82.1815 26.7536 82.1815 26.7536C82.1815 26.7536 96.3794 28.9552 105.135 31.6733C113.981 34.4195 127.055 40.7308 127.055 40.7308C127.055 40.7308 122.134 54.8246 117.901 62.8865C113.67 70.9425 105.403 81.9655 105.403 81.9655C105.403 81.9655 103.088 96.5536 100.344 105.377C97.606 114.182 91.3825 127.066 91.3825 127.066C91.3825 127.066 77.9036 122.394 69.8758 118.18C61.767 113.923 50.0901 105.371 50.0901 105.371C50.0901 105.371 35.6224 103.124 26.8036 100.386C18.0241 97.66 5.0477 91.3928 5.0477 91.3928Z" fill="#86BA37"/>
<path d="M0 66.054C0 66.054 9.59496 55.3699 16.4995 49.5543C23.7096 43.4813 36.1664 35.7009 36.1664 35.7009C36.1664 35.7009 43.9355 23.2634 49.8518 16.2025C55.6149 9.32445 66.054 0 66.054 0C66.054 0 76.7271 9.52163 82.5791 16.5251C88.4921 23.6016 96.025 35.9367 96.025 35.9367C96.025 35.9367 108.293 43.4148 115.337 49.2826C122.453 55.2113 132.108 66.054 132.108 66.054C132.108 66.054 122.158 77.1831 115.157 83.0051C108.16 88.8229 96.2984 95.8329 96.2984 95.8329C96.2984 95.8329 88.5655 108.418 82.648 115.514C76.7425 122.596 66.054 132.108 66.054 132.108C66.054 132.108 55.397 122.625 49.5991 115.654C43.7427 108.613 36.2381 96.237 36.2381 96.237C36.2381 96.237 23.7382 88.6135 16.6437 82.7028C9.58089 76.8183 0 66.054 0 66.054Z" fill="#A9EC45"/>
<path d="M19.3443 112.769C19.3443 112.769 18.5742 98.4295 19.3442 89.4351C20.1483 80.0425 23.455 65.7326 23.455 65.7326C23.455 65.7326 20.1539 51.4444 19.3445 42.2681C18.5562 33.3295 19.3443 19.3546 19.3443 19.3546C19.3443 19.3546 33.6242 18.5403 42.7144 19.3546C51.8993 20.1773 65.9481 23.573 65.9481 23.573C65.9481 23.573 79.9108 20.1859 89.0404 19.3546C98.2648 18.5146 112.759 19.3546 112.759 19.3546C112.759 19.3546 113.593 34.2595 112.759 43.3271C111.925 52.3881 108.494 65.7326 108.494 65.7326C108.494 65.7326 111.925 80.0994 112.759 89.3015C113.591 98.485 112.759 112.769 112.759 112.769C112.759 112.769 98.5175 113.599 89.4887 112.77C80.3688 111.932 66.3112 108.487 66.3112 108.487C66.3112 108.487 52.0818 111.936 42.8857 112.773C33.7306 113.606 19.3443 112.769 19.3443 112.769Z" fill="#A9EC45"/>
<path d="M20.0122 47.0311C20.0122 47.0311 29.7779 42.3474 36.2658 40.2823C43.0409 38.1259 53.9651 36.2905 53.9651 36.2905C53.9651 36.2905 62.9631 29.8586 69.1209 26.6409C75.1192 23.5065 85.0817 20.0136 85.0817 20.0136C85.0817 20.0136 89.7789 29.725 91.8408 36.2924C93.9242 42.9283 95.6221 53.6964 95.6221 53.6964C95.6221 53.6964 102.02 62.4427 105.239 68.5616C108.492 74.7441 112.099 85.0831 112.099 85.0831C112.099 85.0831 101.958 89.9749 95.4006 92.0165C88.848 94.0566 78.5604 95.5262 78.5604 95.5262C78.5604 95.5262 69.5452 102.071 63.3764 105.313C57.2201 108.549 47.0297 112.101 47.0297 112.101C47.0297 112.101 42.3326 102.421 40.299 95.8916C38.2449 89.2967 36.5785 78.5084 36.5785 78.5084C36.5785 78.5084 30.0612 69.5939 26.8184 63.4303C23.5901 57.2942 20.0122 47.0311 20.0122 47.0311Z" fill="#D1FD83"/>
<path d="M20.0407 85.1661C20.0407 85.1661 23.6341 74.9488 26.7616 68.901C30.0275 62.5854 36.4543 53.563 36.4543 53.563C36.4543 53.563 38.2687 42.6524 40.3477 36.0229C42.3728 29.5651 46.9475 20.0508 46.9475 20.0508C46.9475 20.0508 57.1359 23.5963 63.2378 26.7822C69.4032 30.0013 78.218 36.4149 78.218 36.4149C78.218 36.4149 88.9264 38.0757 95.5297 40.1258C102.202 42.1973 112.063 46.9576 112.063 46.9576C112.063 46.9576 108.351 57.5874 105.158 63.6679C101.967 69.7439 95.7317 78.0575 95.7317 78.0575C95.7317 78.0575 93.9851 89.0602 91.9155 95.7146C89.8501 102.356 85.156 112.073 85.156 112.073C85.156 112.073 74.9899 108.549 68.9352 105.371C62.8194 102.16 54.0126 95.7098 54.0126 95.7098C54.0126 95.7098 43.1007 94.0147 36.4493 91.9494C29.8277 89.8932 20.0407 85.1661 20.0407 85.1661Z" fill="#D1FD83"/>
<path d="M39.2008 39.2051C39.2008 39.2051 47.4454 38.7623 52.6168 39.205C58.0171 39.6673 66.2447 41.5686 66.2447 41.5686C66.2447 41.5686 74.4598 39.6706 79.7358 39.2052C84.875 38.752 92.91 39.2051 92.91 39.2051C92.91 39.2051 93.3782 47.4154 92.91 52.6419C92.437 57.9228 90.4846 66.0002 90.4846 66.0002C90.4846 66.0002 92.432 74.0282 92.91 79.2773C93.393 84.5809 92.91 92.9143 92.91 92.9143C92.91 92.9143 84.3403 93.3938 79.1268 92.9143C73.9172 92.4351 66.2447 90.4625 66.2447 90.4625C66.2447 90.4625 57.9844 92.4351 52.6936 92.9143C47.4135 93.3925 39.2008 92.9143 39.2008 92.9143C39.2008 92.9143 38.7236 84.7262 39.2005 79.535C39.6821 74.2915 41.6626 66.209 41.6626 66.209C41.6626 66.209 39.68 58.0277 39.1988 52.7404C38.7197 47.4766 39.2008 39.2051 39.2008 39.2051Z" fill="#89BA38"/>
<path d="M28.0731 66.0619C28.0731 66.0619 33.5898 59.919 37.5596 56.5753C41.7051 53.0836 48.8672 48.6102 48.8672 48.6102C48.8672 48.6102 53.3341 41.4592 56.7357 37.3995C60.0492 33.4449 66.0513 28.0838 66.0513 28.0838C66.0513 28.0838 72.1879 33.5583 75.5525 37.585C78.9522 41.6536 83.2833 48.7458 83.2833 48.7458C83.2833 48.7458 90.3369 53.0454 94.3866 56.4191C98.4783 59.8278 104.029 66.0619 104.029 66.0619C104.029 66.0619 98.3088 72.4606 94.2832 75.808C90.2606 79.153 83.4404 83.1834 83.4404 83.1834C83.4404 83.1834 78.9944 90.4191 75.5921 94.4991C72.1967 98.5709 66.0513 104.04 66.0513 104.04C66.0513 104.04 59.9239 98.5876 56.5904 94.5797C53.2233 90.5314 48.9085 83.4158 48.9085 83.4158C48.9085 83.4158 41.7216 79.0326 37.6426 75.6342C33.5817 72.2509 28.0731 66.0619 28.0731 66.0619Z" fill="#89BA38"/>
<path d="M85.6913 66.0657C85.6913 76.9099 76.9003 85.701 66.0561 85.701C55.2118 85.701 46.4208 76.9099 46.4208 66.0657C46.4208 55.2214 55.2118 46.4304 66.0561 46.4304C76.9003 46.4304 85.6913 55.2214 85.6913 66.0657Z" fill="#E0C89B"/>
<path d="M84.8516 60.367C87.4818 70.3313 78.5122 76.5095 66.1962 76.5095C57.3871 76.5095 52.3291 75.0535 46.4208 66.0657C46.4208 55.8711 53.7573 46.9672 66.0561 46.4304C78.372 46.4304 83.878 56.6786 84.8516 60.367Z" fill="#FEEEBB"/>
</svg>
