<svg width="133" height="133" viewBox="0 0 133 133" fill="none" xmlns="http://www.w3.org/2000/svg">
<path d="M56.574 10.9186C56.7303 4.73407 61.8707 -0.152724 68.0552 0.00365066C74.2397 0.160026 79.1265 5.30035 78.9702 11.4849L76.18 121.835C76.0236 128.02 70.8833 132.907 64.6987 132.75C58.5142 132.594 53.6274 127.454 53.7838 121.269L56.574 10.9186Z" fill="#FCCB3F"/>
<path d="M10.9186 76.1797C4.73407 76.0234 -0.152724 70.883 0.00365066 64.6985C0.160026 58.514 5.30035 53.6272 11.4849 53.7836L121.835 56.5737C128.02 56.7301 132.907 61.8704 132.75 68.055C132.594 74.2395 127.454 79.1263 121.269 78.9699L10.9186 76.1797Z" fill="#FCCB3F"/>
<path d="M20.2298 34.0941C15.9672 29.6104 16.1465 22.5202 20.6302 18.2576C25.1139 13.9951 32.2041 14.1743 36.4667 18.658L112.523 98.6606C116.786 103.144 116.607 110.235 112.123 114.497C107.639 118.76 100.549 118.58 96.2864 114.097L20.2298 34.0941Z" fill="#FCCB3F"/>
<path d="M98.6604 20.2302C103.144 15.9676 110.234 16.1469 114.497 20.6306C118.759 25.1143 118.58 32.2045 114.096 36.4671L34.0939 112.524C29.6102 116.786 22.52 116.607 18.2574 112.123C13.9949 107.64 14.1741 100.549 18.6578 96.2868L98.6604 20.2302Z" fill="#FCCB3F"/>
<path d="M36.3086 19.7575C34.1121 13.9741 37.0199 7.50503 42.8033 5.30849C48.5867 3.11196 55.0558 6.01971 57.2523 11.8031L96.4451 114.997C98.6416 120.78 95.7339 127.249 89.9504 129.446C84.167 131.642 77.6979 128.735 75.5014 122.951L36.3086 19.7575Z" fill="#FEDF9E"/>
<path d="M18.7571 97.4452C12.9737 99.6417 6.50463 96.734 4.3081 90.9505C2.11156 85.1671 5.01931 78.698 10.8028 76.5015L113.996 37.3087C119.78 35.1122 126.249 38.0199 128.446 43.8034C130.642 49.5868 127.734 56.0559 121.951 58.2524L18.7571 97.4452Z" fill="#FEDF9E"/>
<path d="M11.443 54.9669C5.80026 52.4306 3.28204 45.8002 5.81836 40.1575C8.35469 34.5148 14.9851 31.9966 20.6278 34.5329L121.31 79.7885C126.953 82.3248 129.471 88.9552 126.935 94.5979C124.399 100.241 117.768 102.759 112.125 100.222L11.443 54.9669Z" fill="#FEDF9E"/>
<path d="M78.7878 12.4434C81.3241 6.80075 87.9545 4.28254 93.5972 6.81886C99.2399 9.35518 101.758 15.9856 99.2218 21.6283L53.9663 122.311C51.43 127.953 44.7996 130.472 39.1569 127.935C33.5142 125.399 30.9959 118.769 33.5323 113.126L78.7878 12.4434Z" fill="#FEDF9E"/>
<path d="M61.5686 43.778C61.5686 41.1224 63.7214 38.9696 66.3769 38.9696C69.0325 38.9696 71.1853 41.1224 71.1853 43.778V91.1613C71.1853 93.8169 69.0325 95.9696 66.3769 95.9696C63.7214 95.9696 61.5686 93.8169 61.5686 91.1613V43.778Z" fill="#FEC948"/>
<path d="M42.6853 72.2778C40.0297 72.2778 37.877 70.1251 37.877 67.4695C37.877 64.8139 40.0297 62.6612 42.6853 62.6612H90.0686C92.7242 62.6612 94.877 64.8139 94.877 67.4695C94.877 70.1251 92.7242 72.2778 90.0686 72.2778H42.6853Z" fill="#FEC948"/>
<path d="M46.2242 54.1173C44.3464 52.2395 44.3464 49.195 46.2242 47.3172C48.102 45.4395 51.1465 45.4395 53.0242 47.3172L86.5293 80.8223C88.4071 82.7001 88.4071 85.7445 86.5293 87.6223C84.6515 89.5001 81.6071 89.5001 79.7293 87.6223L46.2242 54.1173Z" fill="#FEC948"/>
<path d="M79.7295 47.3171C81.6073 45.4393 84.6518 45.4393 86.5296 47.3171C88.4073 49.1948 88.4073 52.2393 86.5296 54.1171L53.0245 87.6221C51.1467 89.4999 48.1023 89.4999 46.2245 87.6221C44.3467 85.7444 44.3467 82.6999 46.2245 80.8221L79.7295 47.3171Z" fill="#FEC948"/>
<path d="M86.0122 67.4698C86.0122 78.314 77.2212 87.105 66.3769 87.105C55.5327 87.105 46.7417 78.314 46.7417 67.4698C46.7417 56.6255 55.5327 47.8345 66.3769 47.8345C77.2212 47.8345 86.0122 56.6255 86.0122 67.4698Z" fill="#F39014"/>
<path d="M85.1725 61.7711C87.8027 71.7354 78.8331 77.9136 66.5171 77.9136C57.708 77.9136 52.65 76.4576 46.7417 67.4698C46.7417 57.2752 54.0782 48.3712 66.3769 47.8345C78.6929 47.8345 84.1989 58.0826 85.1725 61.7711Z" fill="#FEAE22"/>
</svg>
